<?xml version="1.0" encoding="utf-8"?>
<!-- Generator: Adobe Illustrator 23.0.1, SVG Export Plug-In . SVG Version: 6.00 Build 0)  -->
<svg version="1.1" id="Layer_1" xmlns="http://www.w3.org/2000/svg" xmlns:xlink="http://www.w3.org/1999/xlink" x="0px" y="0px"
	 viewBox="0 0 130.9 131.1" style="enable-background:new 0 0 130.9 131.1;" xml:space="preserve">
<style type="text/css">
	.st0{fill-rule:evenodd;clip-rule:evenodd;fill:#FF4000;}
</style>
<path id="planet-3" class="st0" d="M91.1,20.2C91.3,20,91.7,20,92,20c0.2,0,0.3,0,0.5,0.1c0.4,0.1,0.7,0.3,0.9,0.6l0,0l0.2,0.2
	c0.5,0.3,0.9,0.6,1.3,1c0.6,0.6,1,1.3,1.2,2.1c0.2,0.8,0.1,1.6-0.2,2.3c-0.2,0.6-0.5,1.2-0.9,1.8c-0.3,0.4-0.6,0.7-1,1
	c-0.4,0.3-0.8,0.5-1.3,0.7c-0.5,0.2-1,0.3-1.5,0.3h-1c-0.2,0-0.4,0-0.5-0.1c-0.7-0.2-1.3-0.5-1.9-0.9c-0.8-0.5-1.5-1.1-2.1-1.7
	c-0.7-0.6-0.7-1.6-0.1-2.3c0,0,0.1-0.1,0.1-0.1c0.7-0.6,1.8-0.6,2.5,0c0.3,0.3,0.6,0.6,1,0.9c0.5,0.3,1,0.6,1.5,0.8
	c0.1,0,0.2,0,0.2,0.1h0.3c0.1,0,0.3-0.1,0.4-0.1s0.1-0.1,0.2-0.1l0.3-0.3l0.3-0.6c0.1-0.2,0.2-0.5,0.2-0.7v-0.2c0-0.1,0-0.1-0.1-0.2
	l-0.3-0.3c-0.1-0.1-0.3-0.2-0.4-0.3c-0.2-0.1-0.4-0.3-0.6-0.5c-0.2-0.2-0.4-0.4-0.6-0.7c-0.3-0.4-0.3-0.9-0.2-1.3
	C90.3,21,90.6,20.5,91.1,20.2z M83.5,50.7C83.5,50.8,83.5,50.8,83.5,50.7C83.6,50.7,83.5,50.7,83.5,50.7z M82.5,49.5
	c-0.1,0-0.2,0.1-0.4,0.1s-0.2,0.1-0.3,0.2c-0.1,0.2-0.2,0.3-0.3,0.5c0,0.1-0.1,0.2-0.1,0.3v0.2c0.1,0.1,0.1,0.2,0.2,0.4l0.2,0.2
	c0.1,0.1,0.2,0.1,0.3,0.2s0.2,0.1,0.3,0.1h0.4c0.1-0.1,0.2-0.1,0.3-0.2l0.2-0.2c0-0.1,0-0.1,0.1-0.1V51l-0.1-0.1
	c-0.2-0.2-0.4-0.4-0.6-0.7C82.7,50,82.6,49.7,82.5,49.5z M81.3,46.3c0.5-0.2,1.1-0.3,1.6-0.3H83c0.5,0,1.1,0.1,1.6,0.3
	c0.8,0.2,1.4,1.1,1.2,1.9l0.3,0.3c0.4,0.5,0.7,1.1,0.9,1.8c0.2,1.2-0.2,2.4-1,3.3c-0.8,0.8-1.8,1.3-2.9,1.4c-0.5,0-0.9,0-1.4-0.1
	c-0.5-0.1-0.9-0.3-1.3-0.6c-1-0.6-1.7-1.5-2.1-2.6c-0.3-1.1-0.1-2.2,0.4-3.2c0.3-0.5,0.6-0.9,1-1.3C80.1,46.8,80.7,46.5,81.3,46.3z
	 M94.6,57h0.7c0.4,0,0.9,0,1.3,0.1c1.3,0.2,2.5,0.8,3.6,1.6c0.8,0.5,1.5,1.1,2,1.9c0.8,1.1,1,2.4,0.7,3.7c-0.3,1.3-1.1,2.4-2.2,3.1
	c-0.8,0.5-1.6,0.9-2.5,1.1c-0.9,0.2-1.8,0.4-2.7,0.5c-0.5,0.1-1,0.1-1.4-0.2c-0.4-0.2-0.7-0.6-0.8-1c-0.1-0.4-0.1-0.9,0.2-1.3
	c0.3-0.4,0.6-0.7,1.1-0.8c0.6,0,1.1-0.1,1.7-0.3c0.6-0.1,1.2-0.3,1.8-0.5c0.3-0.1,0.5-0.2,0.7-0.4c0.1-0.1,0.3-0.2,0.4-0.4
	c0.1-0.2,0.2-0.3,0.3-0.5c0-0.1,0.1-0.3,0.1-0.4v-0.3c0-0.1-0.1-0.2-0.1-0.3s-0.2-0.3-0.3-0.4c-0.3-0.3-0.6-0.6-1-0.9
	c-0.4-0.3-0.9-0.6-1.4-0.8c-0.3-0.1-0.5-0.2-0.8-0.2h-1.1c-0.5,0.1-1,0.2-1.5,0.4c-0.9,0.3-1.9-0.3-2.2-1.2
	c-0.2-0.9,0.3-1.9,1.2-2.1c0,0,0,0,0,0C93.1,57.3,93.8,57.1,94.6,57z M91.9,102C91.8,102,91.8,102,91.9,102
	C91.8,102.1,91.9,102.1,91.9,102z M69.8,98.6c-0.1,0-0.2,0.1-0.3,0.1C69.6,98.7,69.7,98.6,69.8,98.6z M105,79.6L105,79.6z
	 M107.2,48.5c0.3-0.3,0.8-0.5,1.2-0.5c0.5,0,0.9,0.2,1.2,0.5c0.6,0.7,1.1,1.4,1.7,2.2c1.2,1.5,2.3,3,3.3,4.7
	c0.7,1.2,1.3,2.5,1.6,3.8c0.3,1,0.5,2,0.6,3.1c0.1,1,0.1,2,0.1,3c0,0.5,0,0.9-0.1,1.4c-0.1,0.5-0.1,1.1-0.2,1.6
	c-0.4,2-0.9,3.9-1.7,5.7c-0.2,0.5-0.5,1-0.7,1.4c-0.2,0.4-0.4,0.7-0.7,1.1c-0.5,0.8-1.1,1.6-1.8,2.4c-0.6,0.7-1.3,1.4-2.1,1.9
	l-1.1,0.8c-0.9,0.7-2,1.2-3.1,1.6c-1.9,0.6-3.8,1-5.8,1.4c-0.8,0.2-1.7,0.3-2.5,0.5c-0.9,0.2-1.8,0.5-2.7,0.8
	c-0.7,0.3-1.4,0.7-2,1.2c-0.5,0.4-0.9,0.8-1.4,1.2c-0.5,0.5-0.9,1-1.3,1.5L88.8,91c-0.3,0.4-0.6,0.8-0.9,1.1c-0.3,0.3-0.7,0.6-1,0.9
	c-0.5,0.5-1.1,0.9-1.8,1.2c-0.6,0.3-1.2,0.6-1.9,0.8c-1.2,0.5-2.4,0.9-3.7,1.1c-1.2,0.2-2.4,0.3-3.6,0.4c-1.1,0.2-2.2,0.4-3.2,0.8
	l-3,1.2h0.1c-1.2,0.5-2.4,1.1-3.5,1.9c-0.5,0.4-0.9,0.8-1.3,1.3c-0.5,0.8-1,1.6-1.4,2.4c0,0.1-0.1,0.3-0.1,0.4v0.3
	c0,0.1,0.1,0.3,0.1,0.4s0.1,0.2,0.2,0.3l0.3,0.3c0.2,0.1,0.3,0.2,0.5,0.3c0.3,0.1,0.5,0.2,0.8,0.2h1.2c0.3-0.1,0.7-0.2,1-0.3
	c1.4-0.7,2.7-1.5,3.9-2.4c1.8-1.1,3.5-2.4,5.6-2.8c1-0.2,2.1-0.3,3.2-0.3c1.1,0.2,2.2,0.4,3.3,0.8c1.4,0.6,2.8,1,4.3,1.2
	c0.6,0.1,1.2,0.1,1.8,0c0.7-0.1,1.4-0.3,2-0.6c0.5-0.2,1-0.5,1.4-0.9c0.3-0.2,0.6-0.5,0.8-0.8c0.3-0.4,0.6-0.8,1-1.1
	c0.7-0.7,1.8-0.7,2.5,0c0.3,0.3,0.5,0.8,0.5,1.2c0,0.5-0.2,0.9-0.5,1.2c-0.9,1.2-2,2.2-3.2,2.9c-1.5,0.8-3.1,1.4-4.8,1.5
	c-1.6,0-3.2-0.2-4.7-0.8c-1.4-0.4-2.9-1-4.3-1.3h-1.7c-0.6,0.1-1.3,0.3-1.9,0.5l-2.1,1.2c-0.7,0.4-1.4,0.9-2.1,1.3s-1.4,0.9-2.1,1.3
	c-0.4,0.2-0.7,0.4-1.1,0.6c-0.5,0.3-1.1,0.5-1.7,0.6c-0.5,0.1-0.9,0.2-1.4,0.2c-0.7,0.1-1.4,0-2.1-0.3c-0.6-0.2-1.1-0.4-1.6-0.7
	c-0.5-0.4-1-0.9-1.4-1.4c-0.3-0.5-0.6-1-0.8-1.6c-0.2-0.7-0.3-1.5-0.1-2.3c0.1-0.5,0.3-1,0.5-1.5l0.6-1.2c0.5-0.9,1.1-1.7,1.8-2.4
	c0.7-0.7,1.6-1.4,2.5-1.9c0.8-0.5,1.7-0.9,2.6-1.2c0.9-0.4,1.8-0.8,2.7-1.1c0.8-0.4,1.7-0.7,2.6-0.9c1.8-0.4,3.6-0.7,5.5-0.8
	c0.7-0.1,1.4-0.3,2.1-0.5c0.6-0.2,1.2-0.5,1.9-0.7c0.7-0.3,1.3-0.7,1.9-1.1c0.4-0.4,0.8-0.8,1.2-1.2c0.9-1.4,2-2.6,3.1-3.8
	c0.7-0.6,1.4-1.2,2.2-1.7c1-0.7,2.1-1.2,3.3-1.5c1.6-0.5,3.2-0.8,4.9-1.1c0.9-0.2,1.8-0.4,2.6-0.5c0.8-0.2,1.7-0.4,2.5-0.7
	c1.2-0.5,2.3-1.2,3.3-2c0.8-0.6,1.4-1.4,2-2.2l1.2-1.8c0.3-0.5,0.6-1,0.8-1.6c0.6-1.6,1-3.2,1.4-4.9c0.1-0.8,0.2-1.6,0.2-2.4
	c0-0.9-0.1-1.7-0.1-2.6c-0.2-1.3-0.5-2.5-0.9-3.7c-0.9-1.8-2-3.6-3.3-5.2c-0.7-0.8-1.3-1.7-2-2.5c-0.3-0.3-0.5-0.8-0.5-1.2
	C106.7,49.3,106.9,48.8,107.2,48.5z M106.2,93.2c0,0.1-0.1,0.1-0.1,0.2C106.2,93.3,106.2,93.3,106.2,93.2z M108.3,88.2
	c0.3-0.2,0.6-0.2,0.9-0.2c0.2,0,0.3,0,0.5,0.1c0.5,0.1,0.9,0.4,1.1,0.8c0.3,0.4,0.3,0.9,0.2,1.3c-0.3,1.4-0.8,2.8-1.4,4.2
	c-0.7,1.6-1.4,3.2-2.2,4.8c-0.2,0.4-0.6,0.7-1.1,0.8c-0.5,0.1-1,0.1-1.4-0.2c-0.4-0.2-0.7-0.6-0.8-1c-0.1-0.4,0-0.9,0.2-1.3
	c0.7-1.4,1.3-2.8,2-4.3c0.5-1.2,0.9-2.5,1.2-3.8C107.5,88.9,107.8,88.4,108.3,88.2z M54.7,116.1L54.7,116.1L54.7,116.1z M53.1,114.5
	c0.1,0.1,0.1,0.1,0.1,0.2C53.1,114.6,53.1,114.6,53.1,114.5z M52.9,114.3L52.9,114.3C53,114.3,52.9,114.3,52.9,114.3z M46.4,105
	L46.4,105z M35.5,104.5h0.2C35.6,104.6,35.5,104.6,35.5,104.5z M35.5,104.2L35.5,104.2C35.6,104.2,35.6,104.2,35.5,104.2z
	 M41.2,54.9L41.2,54.9C41.3,54.9,41.2,54.9,41.2,54.9z M39.3,51.2c0.3-0.2,0.6-0.2,0.9-0.2c0.2,0,0.3,0,0.5,0.1
	c0.4,0.1,0.8,0.4,1.1,0.8c0.2,0.4,0.3,0.9,0.2,1.4c-0.2,0.4-0.4,0.9-0.5,1.4v0.6l0,0c0.4,0.3,0.8,0.6,1.2,1c0.4,0.5,0.8,1.1,1.1,1.7
	c0.3,0.7,0.5,1.5,0.4,2.3c-0.1,0.7-0.2,1.3-0.4,2c-0.5,1.1-0.8,2.2-1.1,3.4c0,0.4,0,0.8,0,1.2c0,0.2,0.1,0.4,0.2,0.6
	c0.1,0.2,0.2,0.3,0.3,0.5c0.1,0.2,0.3,0.3,0.5,0.4c0.3,0.2,0.7,0.4,1,0.6h0.1c0.3-0.1,0.6-0.1,0.8-0.2s0.2-0.1,0.3-0.2l0.3-0.3
	c0.3-0.5,0.6-1,0.8-1.6c0.5-1.3,0.9-2.6,1.4-3.9l0.6-1.5c0.2-0.5,0.5-0.9,0.8-1.3c0.3-0.5,0.7-0.9,1.1-1.2c0.5-0.4,1.1-0.8,1.7-1.1
	c0.6-0.3,1.2-0.6,1.9-0.7c0.7-0.2,1.5-0.2,2.2,0c0.6,0.2,1.2,0.4,1.8,0.8c0.5,0.3,0.9,0.7,1.3,1.1c0.4,0.5,0.7,1,1,1.5
	c1.2,2.2,1.6,4.7,1.1,7.2c-0.2,0.7-0.4,1.4-0.7,2c-0.2,0.6-0.5,1.3-0.9,1.8c-0.5,0.8-1.2,1.5-1.9,2.1c-0.8,0.7-1.6,1.4-2.5,2
	c-1.5,1.1-3.1,2.1-4.7,3.1c-0.7,0.4-1.5,0.8-2.2,1.3c-0.7,0.5-1.5,1-2.2,1.5c-1.3,1-2.4,2.2-3.5,3.4c-0.6,0.8-1.1,1.6-1.5,2.5
	c-0.3,0.8-0.5,1.5-0.7,2.3c0,0.5,0,1,0,1.5c0.1,0.6,0.1,1.1,0,1.7c0,0.6-0.2,1.2-0.4,1.8c-0.2,0.4-0.4,0.7-0.7,1
	c-0.3,0.2-0.6,0.4-0.8,0.7c-0.6,0.5-1.1,1-1.6,1.6c-0.5,0.7-0.9,1.4-1.3,2.2c-0.3,0.9-0.5,1.8-0.7,2.7v0.9c0,0.2,0.1,0.5,0.2,0.7
	l0,0l0.1,0.1c0.1,0,0.2-0.1,0.3-0.1c0.3-0.1,0.6-0.3,0.8-0.5c1.1-1,2-2.1,3.2-3.1c0.5-0.4,1-0.7,1.6-1c0.8-0.4,1.7-0.6,2.6-0.6
	c0.5,0,0.9,0.1,1.4,0.2c0.5,0.2,0.9,0.4,1.3,0.7c0.8,0.5,1.4,1.2,1.9,2c0.9,1.6,1.4,3.4,1.7,5.2c0.2,1.7,0.6,3.3,1.1,4.9
	c0.4,0.7,0.8,1.5,1.3,2.1c0.6,0.7,1.2,1.3,1.9,1.9c1,0.7,2,1.3,3.1,1.8c1.4,0.6,2.9,0.9,4.4,1.1c1.3,0.2,2.7,0.3,4,0.2
	c1.3-0.2,2.5-0.5,3.7-0.9c0.8-0.4,1.5-0.8,2.2-1.2s1.2-0.7,1.7-1c0.5-0.3,1-0.6,1.5-1c0.5-0.4,1-0.7,1.6-1l0.4-0.4
	c0.1-0.1,0.1-0.1,0.1-0.2c0.5-0.8,1.6-1.1,2.4-0.6c0.8,0.5,1.1,1.5,0.7,2.3c0,0,0,0.1-0.1,0.1c-0.3,0.5-0.7,1-1.2,1.4
	c-0.4,0.3-0.8,0.6-1.2,0.8c-0.3,0.2-0.7,0.4-1,0.6c-0.7,0.5-1.4,0.9-2.2,1.4c-0.8,0.5-1.6,1-2.5,1.4c-1,0.5-2,0.9-3.1,1.2
	c-0.4,0.1-0.8,0.2-1.3,0.3c-1.2,0.3-2.5,0.4-3.8,0.3l-3.1-0.3c-1-0.1-2-0.3-3-0.6c-1.8-0.5-3.6-1.4-5.1-2.5c-1-0.7-2-1.6-2.8-2.6
	c-0.8-0.9-1.4-2-1.9-3.1c-0.5-1.2-0.9-2.4-1.1-3.7c-0.2-0.9-0.3-1.9-0.5-2.8c-0.2-0.9-0.4-1.8-0.8-2.6c-0.1-0.3-0.3-0.6-0.5-0.9
	c-0.2-0.3-0.4-0.5-0.7-0.7c-0.1-0.1-0.2-0.1-0.3-0.2s-0.3-0.1-0.4-0.1h-0.5c-0.2,0-0.4,0.1-0.6,0.2c-0.3,0.2-0.6,0.3-0.9,0.5
	c-1.2,1-2.2,2.3-3.5,3.3c-0.3,0.3-0.6,0.5-1,0.6c-0.4,0.3-0.9,0.4-1.4,0.5c-0.3,0-0.6,0.1-0.9,0.1c-0.2,0-0.5,0-0.7-0.1
	c-0.5-0.2-0.9-0.4-1.3-0.7c-0.4-0.3-0.8-0.7-1.1-1.2c-0.2-0.4-0.4-0.8-0.4-1.3c-0.1-0.5-0.2-0.9-0.2-1.4c0-0.4,0-0.8,0.1-1.2
	c0.2-1.5,0.6-3,1.3-4.4c0.6-1.2,1.3-2.3,2.3-3.2c0.3-0.2,0.6-0.5,0.8-0.8c0.3-0.3,0.6-0.5,0.9-0.8l0,0v-0.1c0.1-0.9-0.1-1.8,0-2.6
	c0.1-1,0.2-2,0.5-3c0.3-0.9,0.7-1.8,1.2-2.7c0.5-0.9,1.1-1.7,1.8-2.5c1.3-1.5,2.7-2.8,4.3-4c1.5-1.1,3.1-2,4.7-2.9
	c1.5-0.9,3-2,4.4-3c1-0.7,1.8-1.5,2.6-2.4c0.3-0.4,0.5-0.8,0.7-1.3c0.3-0.8,0.6-1.6,0.7-2.5v-1.3c-0.1-0.7-0.3-1.4-0.6-2.1
	c-0.2-0.5-0.5-0.9-0.7-1.3l-0.5-0.5c-0.2-0.2-0.4-0.3-0.7-0.4c-0.1,0-0.2-0.1-0.3-0.1h-0.4c-0.2,0-0.5,0.1-0.7,0.2
	c-0.4,0.2-0.8,0.4-1.2,0.7c-0.2,0.2-0.4,0.4-0.6,0.7c-0.3,0.5-0.6,1-0.8,1.5c-0.4,1.2-0.8,2.4-1.3,3.6c-0.3,0.8-0.6,1.6-1,2.3
	c-0.4,0.9-1,1.6-1.8,2.2c-0.7,0.5-1.5,0.8-2.4,0.9c-0.6,0.1-1.2,0.1-1.7-0.1c-0.5-0.2-1-0.4-1.5-0.7c-0.8-0.4-1.5-1.1-2-1.8
	c-1-1.5-1.4-3.4-1-5.2c0.2-0.8,0.4-1.6,0.6-2.3c0.1-0.3,0.2-0.5,0.3-0.8c0.2-0.5,0.3-0.9,0.4-1.4v-0.8c-0.1-0.3-0.2-0.5-0.4-0.7
	l-0.2-0.2c-0.1-0.1-0.2-0.1-0.3-0.2c-0.3-0.2-0.6-0.4-0.8-0.7c-0.4-0.4-0.7-1-0.9-1.6c-0.1-0.7-0.1-1.4,0-2.1
	c0.1-0.6,0.3-1.1,0.5-1.6C38.5,51.8,38.9,51.6,39.3,51.2z M27.2,81.4h-0.4c-0.3,0-0.5,0.1-0.8,0.2c-0.2,0.1-0.3,0.2-0.5,0.3
	l-0.6,0.6c-0.1,0.2-0.2,0.3-0.3,0.5s-0.1,0.2-0.1,0.3v0.2c0,0.1,0.1,0.3,0.1,0.4c0.1,0.3,0.3,0.6,0.5,0.8l0.3,0.3
	c0.2,0.2,0.5,0.3,0.8,0.4c0.2,0.1,0.4,0.1,0.6,0.2h0.5c0.3-0.1,0.6-0.1,0.9-0.2c0.3-0.1,0.5-0.2,0.7-0.4c0.1-0.1,0.3-0.2,0.4-0.4
	s0.3-0.4,0.4-0.6v-0.3l0,0c0-0.1-0.1-0.1-0.1-0.2l-0.2-0.2c-0.4-0.3-0.9-0.4-1.3-0.7c-0.4-0.2-0.7-0.6-0.8-1
	C27.2,81.6,27.2,81.5,27.2,81.4z M27.8,78L27.8,78c0.9,0,1.7,0.7,1.7,1.6c0.1,0,0.2,0.1,0.3,0.1c0.3,0.2,0.5,0.3,0.8,0.4
	c0.5,0.3,1,0.7,1.5,1.1c0.5,0.5,0.8,1.1,0.9,1.8c0.1,0.6,0.1,1.3-0.1,1.9c-0.5,1.4-1.5,2.6-2.8,3.2c-0.7,0.3-1.4,0.6-2.2,0.7
	c-0.8,0.1-1.6,0.1-2.4-0.2c-0.7-0.2-1.3-0.5-1.9-0.9c-0.7-0.5-1.2-1.1-1.6-1.8c-0.7-1.1-1-2.4-0.7-3.7c0.4-1.2,1.2-2.3,2.3-3.1
	c0.7-0.5,1.4-0.8,2.2-1C26.4,78.1,27.1,78,27.8,78z M25,55c0-1.1,0.9-2,2-2s2,0.9,2,2s-0.9,2-2,2S25,56.1,25,55z M28,44
	c0-1.1,0.9-2,2-2s2,0.9,2,2s-0.9,2-2,2S28,45.1,28,44z M69,48c0-1.1,0.9-2,2-2s2,0.9,2,2s-0.9,2-2,2S69,49.1,69,48z M68,53
	c0-1.1,0.9-2,2-2s2,0.9,2,2s-0.9,2-2,2S68,54.1,68,53z M107,63c0-1.1,0.9-2,2-2s2,0.9,2,2s-0.9,2-2,2S107,64.1,107,63z M125.5,49.7
	L125.5,49.7z M81.2,125.5c0.1,0,0.1,0,0.2-0.1L81.2,125.5C81.3,125.5,81.3,125.5,81.2,125.5L81.2,125.5z M65.9,3.5h0.3
	c-5.5,0-11,0.7-16.4,2C49.2,5.7,48.6,5.8,48,6h-0.2c-2.9,0.9-5.8,2-8.5,3.3h-0.1c-0.1,0.1-0.2,0.1-0.4,0.2c-0.1,0-0.1,0-0.1,0.1
	c-0.1,0-0.2,0.1-0.3,0.1s-0.1,0.1-0.2,0.1c-0.1,0-0.1,0-0.2,0.1c-0.1,0-0.2,0.1-0.3,0.1s-0.1,0.1-0.2,0.1l-0.3,0.2
	c-0.1,0-0.1,0-0.1,0.1c-0.1,0.1-0.2,0.1-0.3,0.2l-0.1,0.1c-0.1,0.1-0.2,0.1-0.3,0.2h-0.1c-0.1,0.1-0.2,0.1-0.4,0.2
	c-0.1,0-0.1,0-0.1,0.1l-0.4,0.2c-0.1,0-0.1,0-0.1,0.1c-0.1,0.1-0.2,0.1-0.3,0.2s-0.1,0.1-0.2,0.1c-4.5,2.6-8.7,5.8-12.5,9.5
	c-3.8,3.8-7.1,8-9.9,12.6C9.6,38.6,7.5,43.5,6,48.7c-1.5,5.5-2.3,11.2-2.4,16.9c0,5.3,0.7,10.6,2,15.8C7,86.6,9,91.6,11.7,96.2l0,0
	c2.7,4.7,6,9.1,9.8,13l-0.3-0.3c3.8,3.9,8,7.3,12.7,10.1c4.8,2.8,9.9,5,15.2,6.5c5.3,1.4,10.8,2.2,16.3,2.3h-0.5
	c5.5,0,11-0.6,16.4-2h-0.2c0.1,0,0.2-0.1,0.3-0.1h0.1c5.2-1.4,10.2-3.5,14.9-6.2c4.5-2.6,8.7-5.8,12.5-9.4c3.8-3.8,7.1-8,9.9-12.6
	c2.7-4.6,4.9-9.6,6.4-14.7l0,0c0-0.1,0.1-0.3,0.1-0.4c0,0.1-0.1,0.2-0.1,0.3c1.5-5.5,2.3-11.2,2.4-16.9c0-5.4-0.7-10.7-2-15.9
	c0,0.1,0,0.2,0.1,0.2l-0.1-0.3v-0.1c-1.4-5.1-3.4-10-6-14.6l0,0c-2.7-4.7-5.9-9-9.7-12.9c-3.8-3.8-8-7.1-12.6-9.9
	c-4.7-2.8-9.7-4.9-14.9-6.4h0.1C77.1,4.3,71.5,3.5,65.9,3.5z M63.3,0h2c5,0,10.1,0.5,15,1.7C85.7,3,90.9,4.9,95.9,7.5
	c5,2.6,9.6,5.8,13.7,9.6c8.1,7.5,14.3,16.9,17.9,27.4c1.8,5.3,2.9,10.7,3.3,16.3c0.8,11-1.2,22.1-5.8,32.2
	c-4.6,9.9-11.6,18.6-20.4,25.1c-8.9,6.6-19.3,10.8-30.2,12.4c-34.3,4.7-66.3-18.1-73.1-52c-2.1-10.7-1.6-21.8,1.6-32.3
	c2.1-6.7,5.2-13.1,9.3-18.8c0-0.1,0-0.1,0.1-0.2c2.5-3.5,5.4-6.7,8.5-9.6l0.1-0.1c0.1,0,0.1,0,0.1-0.1l0,0c1.8-1.6,3.6-3.2,5.6-4.6
	c0.1,0,0.1,0,0.1-0.1v0c0.1-0.1,0.2-0.1,0.3-0.2s0.2-0.1,0.2-0.2l0.1-0.1c2.3-1.6,4.7-3.1,7.2-4.5C43.4,3,53.2,0.4,63.3,0z"/>
</svg>
